HIERARCHY
ROOT Hips
{
  OFFSET -31.5692 30.0904 122.763
  CHANNELS 6 Xposition Yposition Zposition Zrotation Xrotation Yrotation
  JOINT LeftUpLeg
  {
    OFFSET 8.64259 1.95398 -2.38835
    CHANNELS 3 Zrotation Xrotation Yrotation
    JOINT LeftLeg
    {
      OFFSET 43.7702 0 0
      CHANNELS 3 Zrotation Xrotation Yrotation
      JOINT LeftFoot
      {
        OFFSET 40.6238 0 0
        CHANNELS 3 Zrotation Xrotation Yrotation
        JOINT LeftToeBase
        {
          OFFSET 12.7242 0 0
          CHANNELS 3 Zrotation Xrotation Yrotation
          End Site
          {
            OFFSET 0 0 0
          }
        }
      }
    }
  }
  JOINT RightUpLeg
  {
    OFFSET -8.2249 1.95398 -2.59336
    CHANNELS 3 Zrotation Xrotation Yrotation
    JOINT RightLeg
    {
      OFFSET 43.5653 0 0
      CHANNELS 3 Zrotation Xrotation Yrotation
      JOINT RightFoot
      {
        OFFSET 40.6238 0 0
        CHANNELS 3 Zrotation Xrotation Yrotation
        JOINT RightToeBase
        {
          OFFSET 12.7242 0 0
          CHANNELS 3 Zrotation Xrotation Yrotation
          End Site
          {
            OFFSET 0 0 0
          }
        }
      }
    }
  }
  JOINT Spine
  {
    OFFSET 0.165834 0.87714 6.61349
    CHANNELS 3 Zrotation Xrotation Yrotation
    JOINT Spine1
    {
      OFFSET 7.38963 1.71661e-005 0
      CHANNELS 3 Zrotation Xrotation Yrotation
      JOINT Spine2
      {
        OFFSET 11.9445 1.14441e-005 0
        CHANNELS 3 Zrotation Xrotation Yrotation
        JOINT Spine3
        {
          OFFSET 14.7254 4.19617e-005 0
          CHANNELS 3 Zrotation Xrotation Yrotation
          JOINT Spine4
          {
            OFFSET 10.9679 0 0
            CHANNELS 3 Zrotation Xrotation Yrotation
            JOINT RightShoulder
            {
              OFFSET 2.46616 -1.6653 3.69651
              CHANNELS 3 Zrotation Xrotation Yrotation
              JOINT RightArm
              {
                OFFSET 13.0012 0 0
                CHANNELS 3 Zrotation Xrotation Yrotation
                JOINT RightForeArm
                {
                  OFFSET 28.7848 1.62311e-005 0
                  CHANNELS 3 Zrotation Xrotation Yrotation
                  JOINT RightHand
                  {
                    OFFSET 26.5688 1.62095e-005 0
                    CHANNELS 3 Zrotation Xrotation Yrotation
                    End Site
                    {
                      OFFSET 0 0 0
                    }
                  }
                }
              }
            }
            JOINT LeftShoulder
            {
              OFFSET 2.38034 -1.29275 -3.7523
              CHANNELS 3 Zrotation Xrotation Yrotation
              JOINT LeftArm
              {
                OFFSET 16.3182 6.07031e-005 0
                CHANNELS 3 Zrotation Xrotation Yrotation
                JOINT LeftForeArm
                {
                  OFFSET 27.0901 0 0
                  CHANNELS 3 Zrotation Xrotation Yrotation
                  JOINT LeftHand
                  {
                    OFFSET 24.5451 1.51738e-005 0
                    CHANNELS 3 Zrotation Xrotation Yrotation
                    End Site
                    {
                      OFFSET 0 0 0
                    }
                  }
                }
              }
            }
            JOINT Neck
            {
              OFFSET 5.0226 -0.0266342 0
              CHANNELS 3 Zrotation Xrotation Yrotation
              JOINT Head
              {
                OFFSET 6.69364 2.86102e-005 0
                CHANNELS 3 Zrotation Xrotation Yrotation
                End Site
                {
                  OFFSET 0 0 0
                }
              }
            }
          }
        }
      }
    }
  }
}
MOTION
Frames:	17
Frame Time:	0.0416667
-121.961 12.7196 121.294 -15.1992 -2.89377 -92.1513 -168.195 -9.98461 96.2754 -21.3451 2.19192 -0.548237 70.792 6.47755 -3.60716 21.259 -7.9087 9.78349 160.19 -8.2166 74.229 -24.4565 -10.8458 1.48379 69.7066 -5.01488 3.74819 35.3701 -3.04337 0.0198407 -0.753675 7.95445 -89.2322 10.971 -1.14486 1.6365 -0.700587 -1.07174 1.68526 -23.2347 -1.58375 1.21681 -3.22203 -1.58374 1.21678 84.0712 -20.7102 -124.053 6.57123 34.2306 19.7542 -58.4525 10.9894 -113.563 -56.8572 -15.0618 19.6527 -91.9624 -35.6427 71.6591 19.6481 -41.2657 37.4864 50.5341 -1.30251 -111.793 62.4353 -5.37262 -3.58059 60.4621 0.734914 -8.37341 -22.5122 5.6542 4.9893 
-121.838 13.2845 120.928 -14.1895 -0.889087 -92.7603 -168.386 -9.47181 95.1233 -20.6754 1.48183 -1.1429 69.992 6.40644 -2.61986 21.545 -7.61738 9.53028 161.271 -5.2284 74.5036 -26.8725 -13.5752 0.677251 69.5805 -5.27842 0.640824 36.2917 -3.49381 0.263987 -0.648706 7.82082 -89.0359 11.2353 -0.842495 2.00296 -0.436952 -0.753527 2.03808 -22.9651 -1.40544 1.6573 -2.95252 -1.40544 1.65729 83.4543 -21.6843 -124.669 7.66561 32.35 18.5023 -59.4572 11.8038 -113.05 -57.2626 -16.3152 21.7547 -88.9418 -31.98 75.9365 9.02329 -38.4315 32.2258 50.9207 -7.156 -109.772 61.684 -4.91262 -3.00183 59.9044 -0.960904 -11.8588 -22.5904 5.93164 8.08873 
-121.864 13.1901 121.038 -14.2062 -1.20877 -92.9532 -168.574 -9.60639 94.9394 -20.4765 1.90539 -1.05115 69.7872 6.35636 -2.31298 21.3417 -7.52071 9.0428 160.941 -5.33796 74.1592 -26.6691 -13.4504 0.822352 69.6093 -5.25373 0.986592 36.8534 -3.72427 0.0602058 -0.67082 7.79954 -89.0288 11.2788 -0.882691 2.02129 -0.393491 -0.79288 2.05817 -22.9219 -1.44929 1.6627 -2.9092 -1.44928 1.66269 83.8401 -21.1439 -124.239 8.97566 32.4479 18.0378 -60.1062 12.0577 -112.926 -57.0175 -16.2069 21.6279 -89.5521 -32.1986 74.8763 10.2859 -37.9297 33.4429 48.0761 -12.1109 -111.001 57.1701 -3.90246 -2.54308 59.6147 -0.916772 -11.9148 -22.4426 6.00622 7.9821 
-121.871 13.181 121.06 -14.1635 -1.28357 -92.9046 -168.599 -9.4606 94.9925 -20.6509 1.51025 -1.02618 69.9045 6.2585 -2.95836 21.5121 -7.52875 9.29013 160.886 -5.34684 74.1394 -26.5256 -13.7583 0.867814 69.535 -5.24554 0.962523 36.2359 -3.41128 -0.205356 -0.634327 7.77085 -89.0483 11.3356 -0.818574 1.97713 -0.336632 -0.730782 2.01122 -22.865 -1.37488 1.63985 -2.8523 -1.37486 1.63985 84.526 -20.6853 -123.091 10.7063 31.8864 17.2433 -61.4811 12.6381 -112.507 -56.7795 -16.4385 22.0934 -89.9498 -32.52 74.2434 10.7452 -37.7424 33.6263 47.4885 -14.1541 -110.931 55.6721 -3.50011 -2.14699 59.3063 -1.00217 -12.1622 -22.4788 5.90448 8.82215 
-121.877 13.1398 121.167 -14.1833 -1.45289 -93.0184 -168.791 -9.59562 94.7473 -20.534 1.59109 -0.944778 69.8643 6.29959 -2.64513 21.369 -7.51803 9.07351 160.592 -5.28867 73.8494 -26.5187 -14.0558 0.995561 69.366 -5.18823 0.702617 38.2235 -4.35859 0.186887 -0.648741 7.77302 -89.069 11.3316 -0.856994 1.93965 -0.340577 -0.770817 1.97543 -22.8696 -1.40025 1.59253 -2.85691 -1.40025 1.59254 84.58 -20.4379 -123.148 10.39 32.3929 17.5786 -62.343 12.9979 -112.683 -57.3071 -16.9063 22.5486 -90.2129 -33.1453 73.9619 11.4932 -38.069 33.7879 50.5862 -9.04241 -110.044 61.9689 -3.82589 -1.17647 59.6532 -0.617414 -11.2071 -22.5737 5.81827 7.76545 
-121.857 13.0912 121.219 -14.1806 -1.66736 -92.9321 -168.895 -9.51907 94.7843 -20.6727 1.64869 -0.812618 70.0228 6.36615 -2.69174 21.7182 -7.52713 9.56546 160.531 -5.54544 73.9222 -26.2579 -13.6588 1.08593 69.5472 -5.29992 0.864638 37.8467 -4.19294 0.230383 -0.637411 7.76708 -89.1107 11.3388 -0.8538 1.8568 -0.333217 -0.771235 1.89258 -22.8629 -1.37231 1.51446 -2.85029 -1.3723 1.51447 84.9253 -20.2716 -122.514 10.7558 31.8834 17.4455 -63.8238 13.3598 -112.206 -57.912 -17.4554 23.0344 -90.4113 -33.4777 73.7082 11.4601 -38.1253 33.5157 59.6516 12.7978 -105.7 86.421 -7.04831 -0.481113 59.6817 -0.393059 -10.7776 -22.6207 5.73588 7.68718 
-121.865 13.1434 121.138 -14.1845 -1.36031 -93.0157 -168.78 -9.59128 94.7663 -20.5398 1.92417 -0.938419 69.7489 6.28882 -2.46954 21.7315 -7.42342 9.35439 160.712 -5.31795 73.9338 -26.5639 -13.7216 0.915712 69.6137 -5.28345 0.991486 37.8857 -4.17451 -0.115085 -0.56667 7.77027 -89.1245 11.336 -0.719464 1.81537 -0.336068 -0.638882 1.84524 -22.8652 -1.23174 1.51533 -2.85257 -1.23174 1.51531 85.2743 -20.2601 -121.758 10.978 31.5974 17.2993 -65.3947 13.8805 -111.87 -58.678 -17.9457 23.2561 -90.6726 -33.7479 73.3226 11.0586 -37.8182 33.2565 60.6903 12.05 -106.777 86.0608 -6.23756 0.474824 59.285 -0.389625 -10.7321 -22.2554 5.56901 8.31563 
-121.861 13.1408 121.137 -14.2177 -1.49683 -93.0409 -168.729 -9.6053 94.822 -20.5164 2.00383 -0.948621 69.8616 6.37967 -2.3982 21.1235 -7.46706 8.63345 160.612 -5.36339 73.8779 -26.5269 -13.8263 0.987918 69.5222 -5.25928 0.804564 38.0097 -4.24396 0.0113054 -0.550972 7.78457 -89.1756 11.3073 -0.712325 1.71246 -0.364625 -0.636265 1.74212 -22.8947 -1.19402 1.4193 -2.882 -1.19401 1.4193 85.7971 -19.6582 -121.019 11.5777 31.1808 17.1059 -67.1011 14.1894 -111.374 -59.5166 -18.46 23.4347 -90.96 -34.2777 72.9793 11.342 -38.1432 33.0799 61.5253 11.9623 -107.245 87.341 -5.28091 1.74268 59.5345 0.153108 -9.52263 -22.1843 5.40829 7.44412 
-121.869 13.1485 121.084 -14.1058 -1.36363 -92.9441 -168.668 -9.55054 94.9156 -20.4367 2.01844 -0.967503 69.852 6.36253 -2.51219 21.293 -7.53433 9.00757 160.796 -5.32029 74.0936 -26.5353 -13.8744 0.919599 69.5781 -5.32093 0.653937 37.7795 -4.15586 0.166933 -0.496128 7.76657 -89.217 11.3426 -0.622203 1.62149 -0.329208 -0.550277 1.64726 -22.8594 -1.08073 1.35958 -2.84679 -1.08071 1.35961 86.1837 -19.3583 -120.36 11.8085 31.1719 17.113 -68.5625 14.7912 -111.213 -59.8548 -18.7149 23.4805 -91.2568 -34.6711 72.5793 11.3643 -38.3725 32.6801 61.8865 11.7276 -107.058 87.3284 -5.06553 2.05052 59.4691 0.40481 -8.84946 -22.0556 5.23057 7.10875 
-121.868 13.121 121.112 -14.1264 -1.47401 -93.009 -168.805 -9.53139 94.7778 -20.55 1.91768 -0.899859 69.7931 6.34155 -2.33402 21.7922 -7.41046 9.40714 160.696 -5.3879 74.0001 -26.4595 -13.5935 0.976401 69.7117 -5.37956 0.79671 37.5968 -4.0801 0.231274 -0.477869 7.77888 -89.2452 11.3216 -0.599148 1.56253 -0.350211 -0.529818 1.58737 -22.8808 -1.04103 1.31028 -2.86814 -1.04102 1.31029 86.5369 -19.081 -119.751 12.0375 31.0654 17.0591 -70.0822 15.2355 -110.894 -60.205 -18.9431 23.4574 -91.4714 -34.8309 72.2515 10.9658 -38.6971 32.5936 61.7052 11.416 -105.988 85.8929 -6.04302 0.944773 59.6404 0.646186 -8.23844 -22.1087 5.09883 6.76087 
-121.864 13.1353 121.123 -14.118 -1.43308 -93.0519 -168.828 -9.58866 94.7159 -20.417 1.85455 -0.909072 69.715 6.31028 -2.36645 21.8274 -7.29325 9.19376 160.715 -5.29805 73.9693 -26.5882 -13.4168 0.957061 69.7811 -5.38116 0.93612 37.7371 -4.14777 0.271723 -0.427376 7.78205 -89.2853 11.3208 -0.51739 1.4739 -0.35097 -0.452027 1.49525 -22.8818 -0.936419 1.25032 -2.86915 -0.936414 1.25033 87.1565 -18.7299 -118.577 12.813 30.5216 16.5056 -71.3477 15.5537 -110.433 -61.6308 -19.29 22.9523 -91.7623 -35.1099 71.8302 10.5243 -38.3117 31.9873 62.5362 11.2383 -107.222 87.3197 -4.63934 2.56181 59.6731 0.885048 -7.62201 -22.041 4.90035 6.70632 
-121.863 13.1122 121.188 -14.1648 -1.53111 -93.0556 -168.854 -9.65334 94.6933 -20.3761 2.01403 -0.891794 69.7139 6.34785 -2.20634 21.3887 -7.30797 8.63678 160.575 -5.3512 73.8618 -26.5303 -13.5044 1.03843 69.6728 -5.3103 1.00061 37.9346 -4.22334 0.1411 -0.39817 7.77423 -89.3255 11.3261 -0.477953 1.39084 -0.345526 -0.41628 1.41051 -22.8768 -0.873825 1.18293 -2.86413 -0.873845 1.18295 87.4735 -18.6378 -117.909 13.0453 30.7081 16.1277 -72.1964 15.6753 -110.249 -62.816 -19.1771 21.8489 -92.1022 -35.4147 71.336 10.2043 -37.8866 31.6805 61.339 11.8961 -106.18 86.7808 -5.82432 1.08856 59.3217 0.904371 -7.21348 -21.9394 4.58229 6.88506 
-121.838 13.1534 121.154 -14.1912 -1.3959 -93.0009 -168.727 -9.69958 94.7862 -20.2943 2.22025 -0.955225 69.7002 6.40739 -1.96114 21.7096 -7.32299 9.10001 160.656 -5.27232 73.9465 -26.6642 -13.3743 1.02264 69.7191 -5.32912 0.995911 37.7716 -4.16128 0.251953 -0.356443 7.77046 -89.3791 11.3337 -0.419739 1.27839 -0.337798 -0.363085 1.2956 -22.8696 -0.784508 1.09319 -2.85692 -0.784522 1.09315 87.5928 -18.4637 -117.748 12.857 31.5568 15.9358 -72.7726 16.2086 -110.489 -62.1889 -18.4849 20.918 -92.5139 -35.8834 70.7777 10.6466 -37.9335 31.9505 60.1825 12.9214 -105.565 86.1461 -7.22522 -0.603765 59.2248 1.0626 -6.61855 -22.0149 4.34712 6.64062 
-121.806 13.1296 121.157 -14.2554 -1.19921 -92.9636 -168.776 -9.83094 94.7607 -20.3761 1.79125 -0.904043 69.9527 6.50966 -2.34236 22.007 -7.4347 9.75444 160.717 -5.25334 73.9548 -26.827 -13.2529 0.995083 69.7921 -5.32086 1.06671 38.0573 -4.26956 0.050899 -0.308049 7.77468 -89.44 11.3251 -0.352021 1.15019 -0.346308 -0.301028 1.16456 -22.8786 -0.681412 0.991246 -2.866 -0.681373 0.99126 88.0124 -18.2027 -116.943 12.9278 31.6198 14.9825 -72.5679 16.493 -110.615 -62.531 -17.9497 19.75 -92.9048 -36.0739 70.1649 10.628 -37.7078 32.1117 58.7568 13.1274 -105.258 84.635 -8.39096 -2.31274 59.9449 1.18398 -5.7386 -22.665 4.03788 5.64055 
-121.735 13.1127 121.155 -14.5099 -0.838233 -92.8459 -168.552 -10.2561 94.9624 -20.1537 2.18659 -0.943305 69.9452 6.668 -1.8959 22.1413 -7.24015 9.50111 160.804 -5.319 73.9473 -27.1325 -13.3504 0.859656 69.9922 -5.3825 1.24022 38.0884 -4.31289 0.337957 -0.23478 7.80285 -89.5209 11.2682 -0.244157 0.97831 -0.403162 -0.200866 0.988108 -22.9361 -0.526884 0.859718 -2.92344 -0.526883 0.859711 88.2403 -18.2739 -116.365 12.0555 32.9927 14.0423 -71.2303 16.5654 -111.499 -61.1391 -16.2551 17.6493 -92.8968 -36.0704 70.1776 8.91904 -36.7739 31.0131 57.4268 13.4609 -103.956 83.3576 -9.94749 -4.48823 60.4304 1.30845 -5.26129 -22.9348 3.80628 5.7502 
-121.601 13.1343 121.371 -14.7535 -0.457627 -93.0899 -168.684 -10.7705 94.624 -20.0803 2.39521 -0.926396 70.2028 6.78688 -2.08123 22.2842 -7.46702 10.208 160.273 -4.74548 73.2179 -27.8749 -14.061 0.970916 69.8152 -5.28557 1.15983 38.9595 -4.6856 0.130463 -0.253459 7.83821 -89.6099 11.1981 -0.32303 0.808279 -0.473032 -0.287166 0.821697 -23.007 -0.551009 0.673829 -2.9944 -0.551014 0.673833 87.865 -18.9319 -116.813 9.9104 35.0898 12.3703 -70.3243 16.4562 -112.315 -58.2116 -14.124 15.338 -92.3737 -36.122 71.1035 5.82401 -34.658 30.2646 57.5713 11.9177 -102.023 82.7612 -10.4096 -5.07494 59.6462 1.91257 -4.40652 -21.7953 3.8507 5.34367 
-121.318 12.811 121.928 -15.2726 1.28855 -93.5006 -169.121 -12.6025 93.7667 -19.1607 0.784554 -0.85163 70.7924 7.10458 -3.41525 23.1486 -7.19292 10.8055 159.777 -3.83036 71.7516 -29.2492 -16.5483 0.46973 70.1889 -5.57059 0.671961 39.4489 -4.90922 0.163485 -0.0968789 7.87292 -89.6728 11.1278 -0.0408344 0.655181 -0.543346 -0.01196 0.65635 -23.0773 -0.235858 0.612619 -3.06465 -0.235854 0.612622 86.0749 -22.4299 -118.602 3.10957 40.4513 11.3248 -67.67 16.0206 -114.065 -50.6711 -10.0583 10.8803 -94.1572 -36.5979 68.1961 10.5147 -34.3348 35.659 53.9426 13.0752 -102.86 88.1745 -9.10875 -3.06496 59.7414 0.909684 -6.0398 -22.3296 3.71415 7.19522 
